<svg width="172" height="195" viewBox="0 0 172 195" fill="none" xmlns="http://www.w3.org/2000/svg">
    <g opacity="0.2" clip-path="url(#clip0_15_326)">
        <path d="M131.836 100.727C130.232 99.0115 128.196 97.9147 125.785 97.4673C125.719 97.455 125.651 97.4444 125.584 97.4331C120.934 88.8977 108.6 71.2647 84.2554 66.5861C84.2554 66.5861 81.505 65.7806 77.398 68.511C77.398 68.511 59.1757 43.3014 52.0668 48.3378C52.0668 48.3378 46.0946 53.3255 57.6876 79.5038L48.1594 86.4365C48.1594 86.4365 32.0157 67.0007 22.2827 73.6422C13.1948 79.7174 28.7006 109.944 28.7006 109.944L25.6914 132.37L26.0717 147.534C26.0717 147.534 23.74 182.003 61.5704 173.542C61.5704 173.542 96.7605 193.786 112.321 171.961L116.304 165.242L120.34 154.669C129.942 151.279 134.272 144.408 136.219 139.122C138.041 134.174 138.113 129.728 138.083 128.328C138.518 125.127 138.641 121.891 138.45 118.666C138.251 115.376 137.715 112.334 136.856 109.627C135.729 106.079 134.04 103.085 131.836 100.727ZM95.7252 104.635C95.6505 104.508 95.677 104.407 95.648 104.269C98.4195 103.589 100.41 101.926 100.111 100.508C100.074 100.352 100.01 100.204 99.9229 100.07C100.325 99.9374 100.727 99.8048 101.129 99.6721C104.64 98.6446 107.91 99.1969 108.414 100.906C108.523 101.307 108.493 101.733 108.33 102.115C107.77 103.557 105.689 105.082 102.965 105.879C102.61 105.984 102.257 106.071 101.909 106.142C98.8593 106.771 96.1777 106.17 95.7252 104.635ZM97.43 81.0095C101.364 80.1792 105.252 82.7517 105.716 84.9477C106.179 87.1437 103.353 89.6038 99.373 90.4437C95.3927 91.2836 91.8137 90.1751 91.3503 87.9791C90.8869 85.7831 93.4955 81.8397 97.43 81.0095ZM85.4147 114.654C85.9188 116.364 83.4756 118.6 79.965 119.627C76.5001 120.645 73.2296 120.093 72.7255 118.383C72.6508 118.256 72.6772 118.155 72.6483 118.017C75.4197 117.337 77.4105 115.675 77.1112 114.256C77.0744 114.1 77.0107 113.952 76.9232 113.818C77.3253 113.685 77.7274 113.553 78.1295 113.42C81.6401 112.393 84.8648 112.955 85.4147 114.654ZM58.3842 55.1764C60.3657 54.3759 62.9076 57.1369 64.1219 58.3621C66.4951 60.7763 68.3771 63.5809 70.4951 66.1446C71.6372 67.4806 73.22 68.8669 73.7338 70.6222C74.4188 72.9626 72.8977 74.8128 70.938 75.9431C64.0935 79.968 61.9399 73.1587 61.9399 73.1587L58.4665 61.228C56.7321 55.0471 58.3842 55.1764 58.3842 55.1764ZM58.1119 107.765C59.4464 103.555 62.7232 100.839 65.431 101.697C68.1388 102.556 69.252 106.664 67.9176 110.873C66.5831 115.083 63.3063 117.799 60.5985 116.941C57.8908 116.082 56.7775 111.974 58.1119 107.765ZM29.4682 93.2001C28.3349 90.0942 26.1842 84.4312 28.9523 81.6967C29.0702 81.5762 31.2884 77.1418 39.5064 85.0607C47.7243 92.9796 46.8327 91.9253 46.8327 91.9253C46.8327 91.9253 51.0002 94.9167 45.096 101.132C43.8072 102.553 42.359 103.821 40.7799 104.91C39.7865 105.553 38.6855 106.012 37.5296 106.265C36.1932 106.5 35.4536 105.939 34.8727 104.771C32.9709 100.967 30.9318 97.1922 29.4682 93.2001ZM134.417 128.112C134.417 128.112 135.572 146.267 117.92 151.616L108.547 154.98L96.2621 157.907C96.2621 157.907 95.6624 158.07 94.5831 158.298C89.4881 159.373 73.6984 161.892 59.7751 155.523L53.9669 150.871C53.9669 150.871 41.9861 140.066 46.5421 129.5C47.6547 126.919 50.0016 125.538 52.9121 124.923C61.92 123.022 76.3353 128.47 76.3353 128.47C77.2729 128.711 78.2529 128.738 79.2023 128.548C80.2754 128.335 81.2404 127.755 81.9311 126.906L99.4051 112.563C99.4051 112.563 110.732 103.225 120.051 101.258C123.641 100.501 126.934 100.837 129.165 103.224C137.188 111.805 134.417 128.112 134.417 128.112Z" fill="white"/>
        <path d="M116.042 66.5564C118.6 65.8241 120.079 63.1576 119.347 60.6005C118.614 58.0435 115.948 56.5642 113.391 57.2965C110.834 58.0288 109.354 60.6953 110.087 63.2524C110.819 65.8094 113.485 67.2887 116.042 66.5564Z" fill="white"/>
        <path d="M102.837 57.2649C105.44 56.7157 107.104 54.1608 106.555 51.5582C106.006 48.9557 103.451 47.2912 100.849 47.8403C98.246 48.3895 96.5814 50.9445 97.1306 53.547C97.6798 56.1495 100.235 57.8141 102.837 57.2649Z" fill="white"/>
        <path d="M85.3563 57.0829C87.9588 56.5337 89.6234 53.9788 89.0742 51.3762C88.525 48.7737 85.9701 47.1092 83.3675 47.6583C80.765 48.2075 79.1005 50.7625 79.6496 53.365C80.1988 55.9675 82.7538 57.6321 85.3563 57.0829Z" fill="white"/>
        <path d="M82.2181 45.6072C85.6036 44.8928 84.9618 31.8867 81.0204 18.191C79.5346 12.9612 77.0636 12.5747 73.6324 13.2987C70.2468 14.0131 67.6395 15.4713 68.7594 20.7783C71.4818 33.6799 78.8326 46.3216 82.2181 45.6072Z" fill="white"/>
        <path d="M103.263 45.4672C106.591 46.2941 111.654 34.2823 114.046 20.2537C114.971 14.8975 112.911 13.5162 109.573 12.6436C106.245 11.8168 103.266 11.9675 101.946 17.2636C98.7713 30.0717 99.9341 44.6404 103.263 45.4672Z" fill="white"/>
        <path d="M141.984 31.9442C139.601 29.4842 137 28.0261 133.059 31.7726C123.564 40.8967 116.675 53.7715 119.068 56.2772C121.46 58.783 132.13 51.3705 141.702 40.7967C145.336 36.7324 144.331 34.4596 141.984 31.9442Z" fill="white"/>
        <path d="M111.311 107.613C111.311 107.613 102.083 112.571 103.846 117.981C105.609 123.391 118.066 123.773 118.066 123.773C118.066 123.773 121.539 124.378 122.722 120.927C123.915 117.521 125.746 112.834 123.768 107.087C123.768 107.087 122.613 102.743 111.311 107.613Z" fill="white"/>
    </g>
    <defs>
        <clipPath id="clip0_15_326">
            <rect width="139.585" height="169.49" fill="white" transform="translate(0 28.8362) rotate(-11.9156)"/>
        </clipPath>
    </defs>
</svg>
